<?xml version="1.0" encoding="UTF-8"?>
<svg id="Layer_1" data-name="Layer 1" xmlns="http://www.w3.org/2000/svg" viewBox="0 0 500 500">
  <defs>
    <style>
      .cls-1 {
        fill: #575757;
      }
    </style>
  </defs>
  <path class="cls-1" d="m250,45.99c-112.67,0-204.01,91.34-204.01,204.01s91.34,204.01,204.01,204.01,204.01-91.34,204.01-204.01S362.67,45.99,250,45.99Zm75.89,182.25c-2.88,2.88-6.35,4.26-10.43,4.14s-7.55-1.62-10.43-4.5l-40.64-40.64v160.41c0,4.08-1.38,7.5-4.14,10.26-2.76,2.76-6.18,4.14-10.24,4.13-4.08,0-7.5-1.38-10.26-4.14-2.76-2.76-4.14-6.18-4.13-10.24v-160.41l-41,41c-2.88,2.88-6.3,4.32-10.26,4.32s-7.38-1.44-10.24-4.32c-2.88-2.88-4.32-6.3-4.32-10.26s1.44-7.38,4.32-10.24l65.82-65.82c1.44-1.44,3-2.46,4.68-3.06,1.68-.6,3.48-.9,5.39-.89,1.92,0,3.72.3,5.39.91,1.68.6,3.24,1.62,4.68,3.05l66.18,66.18c2.64,2.64,3.96,5.93,3.96,9.88s-1.44,7.37-4.32,10.26Z"/>
</svg>