<?xml version="1.0" encoding="UTF-8"?>
<svg id="Layer_1" data-name="Layer 1" xmlns="http://www.w3.org/2000/svg" viewBox="0 0 32 32">
  <path d="m6.67,4h18.67c1.47,0,2.67,1.19,2.67,2.67v18.67c0,1.47-1.19,2.67-2.67,2.67h-5.92c-.43-.09-.44-.91-.44-1.19v-3.29c.01-1.12-.37-1.85-.8-2.23,2.68-.29,5.48-1.29,5.48-5.92,0-1.31-.47-2.39-1.23-3.23.12-.29.53-1.52-.12-3.17,0,0-1.01-.31-3.31,1.24-.96-.27-1.97-.4-3-.41-1.01.01-2.05.15-3,.41-2.29-1.55-3.31-1.24-3.31-1.24-.65,1.65-.24,2.88-.12,3.17-.76.84-1.23,1.92-1.23,3.23,0,4.63,2.8,5.63,5.47,5.96-.35.27-.65.8-.76,1.57-.69.31-2.43.84-3.49-1,0,0-.64-1.15-1.84-1.24,0,0-1.17,0-.08.73,0,0,.79.37,1.33,1.76,0,0,.69,2.33,4.04,1.61v2.04c.01.28-.01,1.09-.44,1.19h-5.91c-1.47,0-2.67-1.19-2.67-2.67V6.67c0-1.47,1.19-2.67,2.67-2.67Z"/>
</svg>