<?xml version="1.0" encoding="UTF-8"?>
<svg id="Layer_1" data-name="Layer 1" xmlns="http://www.w3.org/2000/svg" viewBox="0 0 32 32">
  <path d="m16,12c-2.21,0-4,1.79-4,4s1.79,4,4,4,4-1.79,4-4-1.79-4-4-4Zm0-2.67c3.68,0,6.67,2.98,6.67,6.67s-2.98,6.67-6.67,6.67-6.67-2.98-6.67-6.67,2.98-6.67,6.67-6.67Zm8.67-.33c0,.92-.75,1.67-1.67,1.67s-1.67-.75-1.67-1.67.75-1.67,1.67-1.67,1.67.75,1.67,1.67Zm-8.67-3.67c-3.3,0-3.84,0-5.37.08-1.05.05-1.75.19-2.4.44-.54.2-1.04.52-1.44.94-.42.4-.74.9-.94,1.44-.25.65-.39,1.35-.44,2.4-.07,1.47-.08,1.99-.08,5.37s0,3.84.08,5.37c.05,1.04.19,1.75.44,2.4.23.58.49,1,.94,1.44.45.45.87.72,1.44.94.66.25,1.36.4,2.4.44,1.47.07,1.99.08,5.37.08s3.84,0,5.37-.08c1.04-.05,1.75-.19,2.4-.44.54-.2,1.04-.52,1.44-.94.45-.45.72-.87.94-1.44.25-.66.39-1.36.44-2.4.07-1.47.08-1.99.08-5.37s0-3.84-.08-5.37c-.05-1.04-.19-1.75-.44-2.4-.2-.54-.52-1.04-.94-1.44-.4-.42-.9-.74-1.44-.94-.65-.25-1.35-.39-2.4-.44-1.47-.07-1.99-.08-5.37-.08Zm0-2.67c3.62,0,4.07.01,5.5.08,1.42.07,2.39.29,3.24.62.88.34,1.62.8,2.36,1.54.68.67,1.2,1.47,1.54,2.36.33.85.55,1.82.62,3.24.06,1.42.08,1.87.08,5.5s-.01,4.07-.08,5.5c-.07,1.42-.29,2.39-.62,3.24-.33.89-.86,1.7-1.54,2.36-.67.68-1.47,1.2-2.36,1.54-.85.33-1.82.55-3.24.62-1.42.06-1.87.08-5.5.08s-4.07-.01-5.5-.08c-1.42-.07-2.39-.29-3.24-.62-.89-.33-1.7-.86-2.36-1.54-.68-.67-1.2-1.47-1.54-2.36-.33-.85-.55-1.82-.62-3.24-.06-1.42-.08-1.87-.08-5.5s.01-4.07.08-5.5c.07-1.42.29-2.39.62-3.24.33-.89.86-1.7,1.54-2.36.67-.68,1.47-1.2,2.36-1.54.85-.33,1.82-.55,3.24-.62,1.42-.06,1.87-.08,5.5-.08Z"/>
</svg>