<?xml version="1.0" encoding="UTF-8"?>
<svg id="Layer_1" data-name="Layer 1" xmlns="http://www.w3.org/2000/svg" viewBox="0 0 32 32">
  <path d="m24.45,24.45h-3.55v-5.57c0-1.33-.03-3.04-1.85-3.04s-2.13,1.45-2.13,2.94v5.67h-3.55v-11.45h3.41v1.56h.05c.48-.9,1.64-1.85,3.37-1.85,3.6,0,4.27,2.37,4.27,5.45v6.29h0Zm-15.11-13.02c-1.14,0-2.06-.92-2.06-2.06,0,0,0,0,0,0,0-1.14.93-2.06,2.07-2.06,1.14,0,2.06.93,2.06,2.07,0,1.14-.93,2.06-2.07,2.06h0Zm1.78,13.02h-3.56v-11.45h3.57v11.45h0ZM26.23,4H5.77c-.98,0-1.77.77-1.77,1.73v20.54c0,.96.79,1.73,1.77,1.73h20.45c.98,0,1.78-.77,1.78-1.73V5.73c0-.96-.8-1.73-1.78-1.73h0Z"/>
</svg>